<svg data-v-d3f97b9e="" xmlns="http://www.w3.org/2000/svg" viewBox="0 0 384 90"><!----><!----><!----><g data-v-d3f97b9e="" id="725068d9-037d-4e22-a13b-8f2b5720a24d" fill="white" transform="matrix(6.060605525970459,0,0,6.060605525970459,119.5018539428711,-10.454538345336914)"><path d="M7 4.20L7 4.20Q7.11 4.20 7.11 4.31L7.11 4.31L7.11 4.48L7.11 4.48Q7.11 4.59 7 4.59L7 4.59L4.10 4.59L4.10 4.59Q4.06 4.59 4.06 4.63L4.06 4.63L4.06 13.89L4.06 13.89Q4.06 14 3.95 14L3.95 14L3.75 14L3.75 14Q3.64 14 3.64 13.89L3.64 13.89L3.64 4.63L3.64 4.63Q3.64 4.59 3.60 4.59L3.60 4.59L0.84 4.59L0.84 4.59Q0.73 4.59 0.73 4.48L0.73 4.48L0.73 4.31L0.73 4.31Q0.73 4.20 0.84 4.20L0.84 4.20L7 4.20ZM11.61 6.93L11.61 6.93Q12.08 6.93 12.45 7.10L12.45 7.10L12.45 7.10Q12.56 7.14 12.50 7.24L12.50 7.24L12.42 7.46L12.42 7.46Q12.38 7.53 12.33 7.53L12.33 7.53L12.33 7.53Q12.28 7.53 12.25 7.50L12.25 7.50L12.25 7.50Q11.96 7.39 11.56 7.39L11.56 7.39L11.56 7.39Q11.00 7.39 10.56 7.70L10.56 7.70L10.56 7.70Q10.11 8.01 9.86 8.52L9.86 8.52L9.86 8.52Q9.60 9.03 9.60 9.63L9.60 9.63L9.60 13.89L9.60 13.89Q9.60 14 9.49 14L9.49 14L9.30 14L9.30 14Q9.18 14 9.18 13.89L9.18 13.89L9.18 7.10L9.18 7.10Q9.18 6.99 9.30 6.99L9.30 6.99L9.49 6.99L9.49 6.99Q9.60 6.99 9.60 7.10L9.60 7.10L9.60 8.23L9.60 8.23Q9.60 8.26 9.62 8.27L9.62 8.27L9.62 8.27Q9.63 8.27 9.65 8.25L9.65 8.25L9.65 8.25Q9.93 7.64 10.44 7.29L10.44 7.29L10.44 7.29Q10.95 6.93 11.61 6.93L11.61 6.93ZM14.45 5.38L14.45 5.38Q14.24 5.38 14.09 5.24L14.09 5.24L14.09 5.24Q13.94 5.10 13.94 4.90L13.94 4.90L13.94 4.90Q13.94 4.72 14.09 4.58L14.09 4.58L14.09 4.58Q14.24 4.45 14.45 4.45L14.45 4.45L14.45 4.45Q14.66 4.45 14.80 4.58L14.80 4.58L14.80 4.58Q14.94 4.70 14.94 4.90L14.94 4.90L14.94 4.90Q14.94 5.10 14.80 5.24L14.80 5.24L14.80 5.24Q14.66 5.38 14.45 5.38L14.45 5.38ZM14.35 14L14.35 14Q14.24 14 14.24 13.89L14.24 13.89L14.24 7.10L14.24 7.10Q14.24 6.99 14.35 6.99L14.35 6.99L14.55 6.99L14.55 6.99Q14.66 6.99 14.66 7.10L14.66 7.10L14.66 13.89L14.66 13.89Q14.66 14 14.55 14L14.55 14L14.35 14ZM19.12 14L19.12 14Q19.03 14 19.00 13.92L19.00 13.92L16.63 7.11L16.62 7.07L16.62 7.07Q16.62 7.04 16.65 7.01L16.65 7.01L16.65 7.01Q16.69 6.99 16.73 6.99L16.73 6.99L16.95 6.99L16.95 6.99Q17.07 6.99 17.08 7.07L17.08 7.07L19.22 13.31L19.22 13.31Q19.24 13.33 19.25 13.33L19.25 13.33L19.25 13.33Q19.26 13.33 19.28 13.31L19.28 13.31L21.41 7.08L21.41 7.08Q21.43 6.99 21.53 6.99L21.53 6.99L21.76 6.99L21.76 6.99Q21.81 6.99 21.84 7.02L21.84 7.02L21.84 7.02Q21.87 7.06 21.85 7.11L21.85 7.11L19.49 13.92L19.49 13.92Q19.47 14 19.36 14L19.36 14L19.12 14ZM24.05 5.38L24.05 5.38Q23.84 5.38 23.70 5.24L23.70 5.24L23.70 5.24Q23.55 5.10 23.55 4.90L23.55 4.90L23.55 4.90Q23.55 4.72 23.70 4.58L23.70 4.58L23.70 4.58Q23.84 4.45 24.05 4.45L24.05 4.45L24.05 4.45Q24.26 4.45 24.40 4.58L24.40 4.58L24.40 4.58Q24.54 4.70 24.54 4.90L24.54 4.90L24.54 4.90Q24.54 5.10 24.40 5.24L24.40 5.24L24.40 5.24Q24.26 5.38 24.05 5.38L24.05 5.38ZM23.95 14L23.95 14Q23.84 14 23.84 13.89L23.84 13.89L23.84 7.10L23.84 7.10Q23.84 6.99 23.95 6.99L23.95 6.99L24.15 6.99L24.15 6.99Q24.26 6.99 24.26 7.10L24.26 7.10L24.26 13.89L24.26 13.89Q24.26 14 24.15 14L24.15 14L23.95 14ZM31.42 7.10L31.42 7.10Q31.42 6.99 31.53 6.99L31.53 6.99L31.72 6.99L31.72 6.99Q31.84 6.99 31.84 7.10L31.84 7.10L31.84 13.89L31.84 13.89Q31.84 14 31.72 14L31.72 14L31.53 14L31.53 14Q31.42 14 31.42 13.89L31.42 13.89L31.42 13.05L31.42 13.05Q31.42 13.02 31.40 13.02L31.40 13.02L31.40 13.02Q31.39 13.02 31.37 13.03L31.37 13.03L31.37 13.03Q31.07 13.54 30.53 13.82L30.53 13.82L30.53 13.82Q29.99 14.10 29.27 14.10L29.27 14.10L29.27 14.10Q28.22 14.10 27.57 13.47L27.57 13.47L27.57 13.47Q26.92 12.84 26.92 11.79L26.92 11.79L26.92 7.10L26.92 7.10Q26.92 6.99 27.03 6.99L27.03 6.99L27.23 6.99L27.23 6.99Q27.34 6.99 27.34 7.10L27.34 7.10L27.34 11.70L27.34 11.70Q27.34 12.61 27.89 13.16L27.89 13.16L27.89 13.16Q28.43 13.71 29.33 13.71L29.33 13.71L29.33 13.71Q30.28 13.71 30.85 13.15L30.85 13.15L30.85 13.15Q31.42 12.60 31.42 11.70L31.42 11.70L31.42 7.10ZM41.30 6.89L41.30 6.89Q42.31 6.89 42.93 7.50L42.93 7.50L42.93 7.50Q43.55 8.11 43.55 9.14L43.55 9.14L43.55 13.89L43.55 13.89Q43.55 14 43.44 14L43.44 14L43.25 14L43.25 14Q43.13 14 43.13 13.89L43.13 13.89L43.13 9.21L43.13 9.21Q43.13 8.32 42.61 7.80L42.61 7.80L42.61 7.80Q42.08 7.28 41.23 7.28L41.23 7.28L41.23 7.28Q40.32 7.28 39.78 7.79L39.78 7.79L39.78 7.79Q39.24 8.30 39.24 9.18L39.24 9.18L39.24 13.89L39.24 13.89Q39.24 14 39.13 14L39.13 14L38.93 14L38.93 14Q38.82 14 38.82 13.89L38.82 13.89L38.82 9.21L38.82 9.21Q38.82 8.32 38.30 7.80L38.30 7.80L38.30 7.80Q37.79 7.28 36.93 7.28L36.93 7.28L36.93 7.28Q36.01 7.28 35.48 7.79L35.48 7.79L35.48 7.79Q34.94 8.30 34.94 9.18L34.94 9.18L34.94 13.89L34.94 13.89Q34.94 14 34.83 14L34.83 14L34.64 14L34.64 14Q34.52 14 34.52 13.89L34.52 13.89L34.52 7.10L34.52 7.10Q34.52 6.99 34.64 6.99L34.64 6.99L34.83 6.99L34.83 6.99Q34.94 6.99 34.94 7.10L34.94 7.10L34.94 7.88L34.94 7.88Q34.94 7.91 34.96 7.91L34.96 7.91L34.96 7.91Q34.97 7.91 34.99 7.90L34.99 7.90L34.99 7.90Q35.28 7.41 35.80 7.15L35.80 7.15L35.80 7.15Q36.32 6.89 37.00 6.89L37.00 6.89L37.00 6.89Q37.76 6.89 38.30 7.23L38.30 7.23L38.30 7.23Q38.85 7.57 39.07 8.20L39.07 8.20L39.07 8.20Q39.09 8.23 39.10 8.23L39.10 8.23L39.10 8.23Q39.12 8.23 39.13 8.20L39.13 8.20L39.13 8.20Q39.38 7.56 39.95 7.22L39.95 7.22L39.95 7.22Q40.52 6.89 41.30 6.89L41.30 6.89Z"></path></g><!----><g data-v-d3f97b9e="" id="f0481e55-d2fc-464e-a0a8-a2e31d43c7a6" transform="matrix(1.1547343730926514,0,0,1.1547343730926514,-5.736718654632568,-12.706720352172852)" stroke="none" fill="white"><path style="text-indent:0;text-transform:none;block-progression:tb" d="M50 11.031l-1.625 2.813-3.719 6.469-.531.937.531.938 25.75 44.593h-24.75l-.531.938-3.719 6.5L39.781 77H43l41.875.031L88.094 77l-1.625-2.813-34.844-60.343L50 11.03zM43.094 23l-1.625 2.813L6.625 86.186 5 88.97h11.813l.53-.938 25.75-44.594 11.844 20.47.5.937H67.25l-1.625-2.781-20.906-36.25L43.094 23zm-.125 24.125l-1.594 2.813-20.938 36.218-1.625 2.813H95l-1.625-2.813-3.719-6.469-.562-.937H36.53l11.813-20.469.531-.937-.531-.938-3.75-6.468-1.625-2.813z" overflow="visible" color="#000"></path></g><!----></svg>